<svg width="52" height="53" viewBox="0 0 52 53" fill="none" xmlns="http://www.w3.org/2000/svg">
<g clip-path="url(#clip0_5544_4510)">
<path d="M51.5078 0.802246V52.1978H0.112305V0.802246H51.5078Z" fill="#313DEB" stroke="#313DEB" stroke-width="0.223687"/>
<path d="M19.8711 44.0436L30.7113 19.3434C31.2735 18.0633 32.321 17.059 33.6236 16.5512C34.9261 16.0433 36.3771 16.0736 37.6573 16.6354C38.2913 16.9134 38.8644 17.3135 39.3438 17.813C39.8231 18.3125 40.1994 18.9015 40.4511 19.5465C40.7027 20.1914 40.8249 20.8796 40.8105 21.5717C40.7961 22.2639 40.6455 22.9464 40.3673 23.5804L33.76 38.6276C32.636 41.1873 30.5415 43.1958 27.937 44.2114C25.3324 45.2271 22.4311 45.1667 19.8711 44.0436Z" fill="white"/>
<path d="M17.3218 39.4793L17.3363 39.4731C19.8018 38.3906 21.7364 36.3731 22.7146 33.8643C23.6927 31.3555 23.6342 28.561 22.552 26.0953L21.4318 23.5411C20.3477 21.0717 18.3271 19.1341 15.8144 18.1544C13.3018 17.1747 10.5028 17.2333 8.03333 18.3172C7.83743 18.4036 7.68386 18.5643 7.60642 18.7639C7.52898 18.9635 7.534 19.1857 7.62037 19.3816L16.2574 39.0643C16.3437 39.2604 16.5042 39.4142 16.7038 39.4921C16.9033 39.5699 17.1256 39.5653 17.3218 39.4793Z" fill="white"/>
<path d="M41.8244 8.06543L44.0709 15.1467L41.9462 15.8198L40.8539 12.3788L38.8624 16.2214L36.8782 15.1983L38.8862 11.335L35.4173 12.4356L34.7432 10.3109L41.8244 8.06543Z" fill="white"/>
</g>
<defs>
<clipPath id="clip0_5544_4510">
<rect y="0.689941" width="51.62" height="51.62" rx="11.4711" fill="white"/>
</clipPath>
</defs>
</svg>
